#Comment line ignore any data following # character 
#Hierarchical Translation and Rotation (.htr) file 
[Header]	
#Header keywords are followed by a single value 
FileType HTR		#Single word string
DataType HTRS		#Translation followed by rotation and scale data
FileVersion 1		#integer
NumSegments 84		#integer
NumFrames 2		#integer
DataFrameRate 30		#integer, data frame rate in this file
EulerRotationOrder ZYX
CalibrationUnits mm
RotationUnits Degrees
GlobalAxisofGravity Y
BoneLengthAxis Y
ScaleFactor 1.00
[SegmentNames&Hierarchy]
#CHILD	PARENT
MASTER GLOBAL
root MASTER
chest root
L_mid_tent01 root
R_mid_tent01 root
spine01 root
Bip01_Neck chest
L_humerus chest
R_humerus chest
weapon_bone chest
Bip01_Head Bip01_Neck
eye_left_bone Bip01_Head
eye_right_bone Bip01_Head
L_forearm L_humerus
L_front_hand L_forearm
L_weapon_bone L_forearm
L_front_hand01_01 L_front_hand
L_front_hand02_01 L_front_hand
L_front_hand03_01 L_front_hand
L_front_hand01_02 L_front_hand01_01
L_front_hand02_02 L_front_hand02_01
L_front_hand03_02 L_front_hand03_01
R_forearm R_humerus
R_front_hand R_forearm
R_weapon_bone R_forearm
R_front_hand01_01 R_front_hand
R_front_hand02_01 R_front_hand
R_front_hand03_01 R_front_hand
R_front_hand01_02 R_front_hand01_01
R_front_hand02_02 R_front_hand02_01
R_front_hand03_02 R_front_hand03_01
null_rope01_connect L_mid_tent01
Rope1_Seg01 null_rope01_connect
Rope1_Seg02 Rope1_Seg01
Rope1_Seg03 Rope1_Seg02
Rope1_Seg04 Rope1_Seg03
Rope1_Seg05 Rope1_Seg04
Rope1_Seg06 Rope1_Seg05
Rope1_Seg07 Rope1_Seg06
Rope1_Seg09 Rope1_Seg07
L_mid_hand01 Rope1_Seg09
L_mid_hand02 Rope1_Seg09
L_mid_hand03 Rope1_Seg09
null_rope02_connect R_mid_tent01
Rope2_Seg01 null_rope02_connect
Rope2_Seg02 Rope2_Seg01
Rope2_Seg03 Rope2_Seg02
Rope2_Seg04 Rope2_Seg03
Rope2_Seg05 Rope2_Seg04
Rope2_Seg06 Rope2_Seg05
Rope2_Seg07 Rope2_Seg06
Rope2_Seg09 Rope2_Seg07
R_mid_hand01 Rope2_Seg09
R_mid_hand02 Rope2_Seg09
R_mid_hand03 Rope2_Seg09
spine02 spine01
spine03 spine02
pelvis spine03
null_rope03_connect pelvis
null_rope04_connect pelvis
Rope3_Seg01 null_rope03_connect
Rope3_Seg02 Rope3_Seg01
Rope3_Seg03 Rope3_Seg02
Rope3_Seg04 Rope3_Seg03
Rope3_Seg05 Rope3_Seg04
Rope3_Seg06 Rope3_Seg05
Rope3_Seg07 Rope3_Seg06
Rope3_Seg08 Rope3_Seg07
Rope3_Seg09 Rope3_Seg08
R_rear_hand01 Rope3_Seg09
R_rear_hand02 Rope3_Seg09
R_rear_hand03 Rope3_Seg09
Rope4_Seg01 null_rope04_connect
Rope4_Seg02 Rope4_Seg01
Rope4_Seg03 Rope4_Seg02
Rope4_Seg04 Rope4_Seg03
Rope4_Seg05 Rope4_Seg04
Rope4_Seg06 Rope4_Seg05
Rope4_Seg07 Rope4_Seg06
Rope4_Seg08 Rope4_Seg07
Rope4_Seg09 Rope4_Seg08
L_rear_hand01 Rope4_Seg09
L_rear_hand02 Rope4_Seg09
L_rear_hand03 Rope4_Seg09
[BasePosition]
#SegmentName Tx, Ty, Tz, Rx, Ry, Rz, BoneLength
MASTER 0.000000 0.000000 0.000000 -90.000000 0.000000 0.000000 10.000000 
root 0.000000 0.000000 0.000000 0.000000 0.000000 0.000000 10.000000 
chest 0.000000 0.000000 0.000000 0.000000 0.000000 0.000000 10.000000 
L_mid_tent01 0.000000 0.000000 0.000000 0.000000 0.000000 0.000000 10.000000 
R_mid_tent01 0.000000 0.000000 0.000000 0.000000 0.000000 0.000000 10.000000 
spine01 0.000000 0.000000 0.000000 0.000000 0.000000 0.000000 10.000000 
Bip01_Neck 0.000000 0.000000 0.000000 0.000000 0.000000 0.000000 10.000000 
L_humerus 0.000000 0.000000 0.000000 0.000000 0.000000 0.000000 10.000000 
R_humerus 0.000000 0.000000 0.000000 0.000000 0.000000 0.000000 10.000000 
weapon_bone 0.000000 0.000000 0.000000 0.000000 0.000000 0.000000 10.000000 
Bip01_Head 0.000000 0.000000 0.000000 0.000000 0.000000 0.000000 10.000000 
eye_left_bone 0.000000 0.000000 0.000000 0.000000 0.000000 0.000000 10.000000 
eye_right_bone 0.000000 0.000000 0.000000 0.000000 0.000000 0.000000 10.000000 
L_forearm 0.000000 0.000000 0.000000 0.000000 0.000000 0.000000 10.000000 
L_front_hand 0.000000 0.000000 0.000000 0.000000 0.000000 0.000000 10.000000 
L_weapon_bone 0.000000 0.000000 0.000000 0.000000 0.000000 0.000000 10.000000 
L_front_hand01_01 0.000000 0.000000 0.000000 0.000000 0.000000 0.000000 10.000000 
L_front_hand02_01 0.000000 0.000000 0.000000 0.000000 0.000000 0.000000 10.000000 
L_front_hand03_01 0.000000 0.000000 0.000000 0.000000 0.000000 0.000000 10.000000 
L_front_hand01_02 0.000000 0.000000 0.000000 0.000000 0.000000 0.000000 10.000000 
L_front_hand02_02 0.000000 0.000000 0.000000 0.000000 0.000000 0.000000 10.000000 
L_front_hand03_02 0.000000 0.000000 0.000000 0.000000 0.000000 0.000000 10.000000 
R_forearm 0.000000 0.000000 0.000000 0.000000 0.000000 0.000000 10.000000 
R_front_hand 0.000000 0.000000 0.000000 0.000000 0.000000 0.000000 10.000000 
R_weapon_bone 0.000000 0.000000 0.000000 0.000000 0.000000 0.000000 10.000000 
R_front_hand01_01 0.000000 0.000000 0.000000 0.000000 0.000000 0.000000 10.000000 
R_front_hand02_01 0.000000 0.000000 0.000000 0.000000 0.000000 0.000000 10.000000 
R_front_hand03_01 0.000000 0.000000 0.000000 0.000000 0.000000 0.000000 10.000000 
R_front_hand01_02 0.000000 0.000000 0.000000 0.000000 0.000000 0.000000 10.000000 
R_front_hand02_02 0.000000 0.000000 0.000000 0.000000 0.000000 0.000000 10.000000 
R_front_hand03_02 0.000000 0.000000 0.000000 0.000000 0.000000 0.000000 10.000000 
null_rope01_connect 0.000000 0.000000 0.000000 0.000000 0.000000 0.000000 10.000000 
Rope1_Seg01 0.000000 0.000000 0.000000 0.000000 0.000000 0.000000 10.000000 
Rope1_Seg02 0.000000 0.000000 0.000000 0.000000 0.000000 0.000000 10.000000 
Rope1_Seg03 0.000000 0.000000 0.000000 0.000000 0.000000 0.000000 10.000000 
Rope1_Seg04 0.000000 0.000000 0.000000 0.000000 0.000000 0.000000 10.000000 
Rope1_Seg05 0.000000 0.000000 0.000000 0.000000 0.000000 0.000000 10.000000 
Rope1_Seg06 0.000000 0.000000 0.000000 0.000000 0.000000 0.000000 10.000000 
Rope1_Seg07 0.000000 0.000000 0.000000 0.000000 0.000000 0.000000 10.000000 
Rope1_Seg09 0.000000 0.000000 0.000000 0.000000 0.000000 0.000000 10.000000 
L_mid_hand01 0.000000 0.000000 0.000000 0.000000 0.000000 0.000000 10.000000 
L_mid_hand02 0.000000 0.000000 0.000000 0.000000 0.000000 0.000000 10.000000 
L_mid_hand03 0.000000 0.000000 0.000000 0.000000 0.000000 0.000000 10.000000 
null_rope02_connect 0.000000 0.000000 0.000000 0.000000 0.000000 0.000000 10.000000 
Rope2_Seg01 0.000000 0.000000 0.000000 0.000000 0.000000 0.000000 10.000000 
Rope2_Seg02 0.000000 0.000000 0.000000 0.000000 0.000000 0.000000 10.000000 
Rope2_Seg03 0.000000 0.000000 0.000000 0.000000 0.000000 0.000000 10.000000 
Rope2_Seg04 0.000000 0.000000 0.000000 0.000000 0.000000 0.000000 10.000000 
Rope2_Seg05 0.000000 0.000000 0.000000 0.000000 0.000000 0.000000 10.000000 
Rope2_Seg06 0.000000 0.000000 0.000000 0.000000 0.000000 0.000000 10.000000 
Rope2_Seg07 0.000000 0.000000 0.000000 0.000000 0.000000 0.000000 10.000000 
Rope2_Seg09 0.000000 0.000000 0.000000 0.000000 0.000000 0.000000 10.000000 
R_mid_hand01 0.000000 0.000000 0.000000 0.000000 0.000000 0.000000 10.000000 
R_mid_hand02 0.000000 0.000000 0.000000 0.000000 0.000000 0.000000 10.000000 
R_mid_hand03 0.000000 0.000000 0.000000 0.000000 0.000000 0.000000 10.000000 
spine02 0.000000 0.000000 0.000000 0.000000 0.000000 0.000000 10.000000 
spine03 0.000000 0.000000 0.000000 0.000000 0.000000 0.000000 10.000000 
pelvis 0.000000 0.000000 0.000000 0.000000 0.000000 0.000000 10.000000 
null_rope03_connect 0.000000 0.000000 0.000000 0.000000 0.000000 0.000000 10.000000 
null_rope04_connect 0.000000 0.000000 0.000000 0.000000 0.000000 0.000000 10.000000 
Rope3_Seg01 0.000000 0.000000 0.000000 0.000000 0.000000 0.000000 10.000000 
Rope3_Seg02 0.000000 0.000000 0.000000 0.000000 0.000000 0.000000 10.000000 
Rope3_Seg03 0.000000 0.000000 0.000000 0.000000 0.000000 0.000000 10.000000 
Rope3_Seg04 0.000000 0.000000 0.000000 0.000000 0.000000 0.000000 10.000000 
Rope3_Seg05 0.000000 0.000000 0.000000 0.000000 0.000000 0.000000 10.000000 
Rope3_Seg06 0.000000 0.000000 0.000000 0.000000 0.000000 0.000000 10.000000 
Rope3_Seg07 0.000000 0.000000 0.000000 0.000000 0.000000 0.000000 10.000000 
Rope3_Seg08 0.000000 0.000000 0.000000 0.000000 0.000000 0.000000 10.000000 
Rope3_Seg09 0.000000 0.000000 0.000000 0.000000 0.000000 0.000000 10.000000 
R_rear_hand01 0.000000 0.000000 0.000000 0.000000 0.000000 0.000000 10.000000 
R_rear_hand02 0.000000 0.000000 0.000000 0.000000 0.000000 0.000000 10.000000 
R_rear_hand03 0.000000 0.000000 0.000000 0.000000 0.000000 0.000000 10.000000 
Rope4_Seg01 0.000000 0.000000 0.000000 0.000000 0.000000 0.000000 10.000000 
Rope4_Seg02 0.000000 0.000000 0.000000 0.000000 0.000000 0.000000 10.000000 
Rope4_Seg03 0.000000 0.000000 0.000000 0.000000 0.000000 0.000000 10.000000 
Rope4_Seg04 0.000000 0.000000 0.000000 0.000000 0.000000 0.000000 10.000000 
Rope4_Seg05 0.000000 0.000000 0.000000 0.000000 0.000000 0.000000 10.000000 
Rope4_Seg06 0.000000 0.000000 0.000000 0.000000 0.000000 0.000000 10.000000 
Rope4_Seg07 0.000000 0.000000 0.000000 0.000000 0.000000 0.000000 10.000000 
Rope4_Seg08 0.000000 0.000000 0.000000 0.000000 0.000000 0.000000 10.000000 
Rope4_Seg09 0.000000 0.000000 0.000000 0.000000 0.000000 0.000000 10.000000 
L_rear_hand01 0.000000 0.000000 0.000000 0.000000 0.000000 0.000000 10.000000 
L_rear_hand02 0.000000 0.000000 0.000000 0.000000 0.000000 0.000000 10.000000 
L_rear_hand03 0.000000 0.000000 0.000000 0.000000 0.000000 0.000000 10.000000 
#Beginning of Data. Separated by tabs
#Fr	Tx	Ty	Tz	Rx	Ry	Rz	SF
[MASTER]
14 340.329224 2216.993896 2014.294434 0.001660 0.001660 0.001660 3014.675537
15 379.622864 2401.953857 2103.332764 0.001660 0.001660 0.001660 3215.198975
[root]
14 23.469749 -78.814850 1308.662109 -97.245895 -19.619253 -92.337799 1311.243286
15 43.164974 -64.356377 1288.504639 -98.214676 -20.367971 -92.295815 1290.832642
[chest]
14 -84.512650 -34.090519 0.000000 1.306124 0.290772 179.512009 91.129311
15 -84.512650 -34.090519 0.000000 1.788313 0.205920 -179.355423 91.129311
[L_mid_tent01]
14 27.299519 22.177504 -249.918259 -0.478568 12.791233 69.451347 252.381134
15 27.299520 22.177504 -249.918259 -0.942394 15.651780 68.769470 252.381134
[R_mid_tent01]
14 23.228794 24.509907 226.238495 170.043579 -22.403849 66.610596 228.744751
15 23.228794 24.509907 226.238495 170.769653 -23.961628 64.199547 228.744751
[spine01]
14 -0.361383 -0.195265 0.000000 0.001845 0.001451 13.654368 0.410763
15 -0.361383 -0.195265 0.000000 0.001845 0.001451 13.654368 0.410763
[Bip01_Neck]
14 165.484543 71.581718 0.000119 176.643677 -1.657967 43.431911 180.302734
15 165.484543 71.581718 0.000119 176.643677 -1.657967 43.431911 180.302734
[L_humerus]
14 -13.983130 -135.272980 -120.471481 136.163681 78.681892 -132.853378 181.680161
15 -13.983130 -135.272980 -120.471481 130.328430 79.726013 -138.798889 181.680161
[R_humerus]
14 -13.983309 -135.273102 125.287651 -170.019836 -72.533699 -95.068306 184.909012
15 -13.983309 -135.273102 125.287651 -169.616196 -73.232666 -95.490608 184.909012
[weapon_bone]
14 235.964890 -300.705902 0.000000 0.000000 -89.951546 -128.212341 382.234833
15 235.964890 -300.705902 0.000000 0.000000 -89.951546 -128.212341 382.234833
[Bip01_Head]
14 213.494873 185.573578 13.612095 4.971846 6.454430 -43.842098 283.201172
15 213.553009 185.411896 15.697079 4.972546 5.809955 -43.861515 283.246979
[eye_left_bone]
14 -24.626970 125.451866 -64.772606 0.000000 -90.000000 -99.840431 143.318359
15 -24.626970 125.451866 -64.772606 0.000000 -90.000000 -99.840431 143.318359
[eye_right_bone]
14 -24.626970 125.451866 64.327362 0.000000 -89.965736 80.156380 143.117676
15 -24.626970 125.451866 64.327362 0.000000 -89.980217 80.156380 143.117676
[L_forearm]
14 322.776093 0.000000 -0.000119 0.000119 -0.002344 -95.807457 322.776093
15 322.776093 0.000000 -0.000119 0.000119 -0.002344 -95.807457 322.776093
[L_front_hand]
14 241.149185 -0.042021 -3.300071 -177.179489 -1.836867 -27.421251 241.171753
15 241.149185 -0.042021 -3.300071 -176.893250 -1.835915 -27.421339 241.171753
[L_weapon_bone]
14 156.183838 0.000000 0.000000 0.000014 0.000007 0.000001 156.183838
15 156.183838 0.000000 0.000000 0.000014 0.000007 0.000001 156.183838
[L_front_hand01_01]
14 86.095154 20.947098 -0.655860 -0.289102 -0.524108 66.611092 88.609184
15 86.095154 20.947098 -0.655860 -0.279531 -0.529728 65.431473 88.609184
[L_front_hand02_01]
14 86.935165 -11.437475 24.513514 142.580521 -55.269009 -47.395390 91.046425
15 86.935165 -11.437475 24.513514 141.258118 -54.537659 -45.777599 91.046425
[L_front_hand03_01]
14 86.637497 -14.123976 -20.424902 -142.879883 53.494293 -49.392010 90.126129
15 86.637497 -14.123976 -20.424902 -141.638611 52.767319 -47.837204 90.126129
[L_front_hand01_02]
14 71.020905 -0.000179 0.000030 0.000315 -0.002326 -105.429543 71.020905
15 71.020905 -0.000179 0.000030 0.000315 -0.002326 -105.415054 71.020905
[L_front_hand02_02]
14 71.020927 -0.000119 0.000060 0.000315 -0.002326 -105.429543 71.020927
15 71.020927 -0.000119 0.000060 0.000315 -0.002326 -105.415054 71.020927
[L_front_hand03_02]
14 71.020905 -0.000060 0.000060 0.000315 -0.002326 -105.429543 71.020905
15 71.020905 -0.000060 0.000060 0.000315 -0.002326 -105.415054 71.020905
[R_forearm]
14 322.776428 -0.000060 0.000030 0.213132 -0.012332 -87.749023 322.776428
15 322.776428 -0.000060 0.000030 0.213022 -0.014009 -86.846825 322.776428
[R_front_hand]
14 238.847015 -0.006795 2.210259 5.888422 -10.644194 -26.313297 238.857239
15 238.847015 -0.006795 2.210259 7.545361 -10.645325 -26.314362 238.857239
[R_weapon_bone]
14 155.664093 0.002503 -0.000030 0.003487 0.001180 -90.988930 155.664078
15 155.664093 0.002503 -0.000030 0.003487 0.001180 -90.988930 155.664078
[R_front_hand01_01]
14 87.624611 14.231146 22.918642 -141.947067 -54.924736 46.726738 91.683487
15 87.624611 14.231146 22.918642 -140.102493 -53.853168 44.460335 91.683487
[R_front_hand02_01]
14 89.356956 14.367283 -19.491137 142.634155 53.329147 49.315872 92.579636
15 89.356956 14.367283 -19.491137 140.872437 52.278004 47.106758 92.579636
[R_front_hand03_01]
14 87.286232 -22.307278 -0.143439 0.092230 -0.445770 -66.286461 90.091743
15 87.286232 -22.307278 -0.143439 0.074609 -0.448192 -64.587509 90.091743
[R_front_hand01_02]
14 71.020905 0.000060 0.000119 0.002323 -0.000334 106.381714 71.020905
15 71.020905 0.000060 0.000119 0.002323 -0.000334 106.381714 71.020905
[R_front_hand02_02]
14 71.020844 -0.000030 -0.000119 0.002323 -0.000334 106.381714 71.020836
15 71.020844 -0.000030 -0.000119 0.002323 -0.000334 106.381714 71.020836
[R_front_hand03_02]
14 71.020905 0.000000 0.000030 0.002323 -0.000334 106.381714 71.020905
15 71.020905 0.000000 0.000030 0.002323 -0.000334 106.381714 71.020905
[null_rope01_connect]
14 328.732483 0.000000 -0.000238 -143.281479 -68.884369 -176.695908 328.732483
15 328.732483 0.000000 -0.000238 -143.573700 -65.077614 -175.019577 328.732483
[Rope1_Seg01]
14 0.000000 0.000000 0.000000 -83.515671 52.433582 -91.919296 0.000000
15 0.000000 0.000000 0.000000 -70.271278 42.916512 -91.157349 0.000000
[Rope1_Seg02]
14 139.999863 -0.000179 0.000000 -17.998631 9.300879 13.036847 139.999863
15 139.999863 -0.000179 0.000000 -28.849060 14.887566 11.801876 139.999863
[Rope1_Seg03]
14 139.999924 0.000060 -0.000060 -16.975677 10.989988 18.078871 139.999924
15 139.999924 0.000060 -0.000060 -23.846489 13.308929 16.393070 139.999924
[Rope1_Seg04]
14 139.999924 -0.000060 -0.000119 -6.935395 -0.377414 17.849348 139.999924
15 139.999924 -0.000060 -0.000119 -7.692965 -0.923954 14.696981 139.999924
[Rope1_Seg05]
14 139.999832 0.000119 -0.000060 3.376063 -23.863777 3.779851 139.999832
15 139.999832 0.000119 -0.000060 5.882717 -24.523273 4.770453 139.999832
[Rope1_Seg06]
14 139.999954 0.000119 -0.000060 -0.129635 -12.396583 2.354047 139.999954
15 139.999954 0.000119 -0.000060 0.801137 -15.844088 4.055658 139.999954
[Rope1_Seg07]
14 139.999985 0.000060 0.000000 -0.375879 -5.158176 1.786071 139.999985
15 139.999985 0.000060 0.000000 -0.204683 -6.205168 2.618231 139.999985
[Rope1_Seg09]
14 121.602913 0.000119 -0.000089 -89.793175 -1.359789 0.847147 121.602913
15 121.602913 0.000119 -0.000089 -89.793175 -1.359789 0.847147 121.602913
[L_mid_hand01]
14 103.859421 1.038730 8.195221 110.016708 -43.583397 -14.630752 104.187431
15 103.859421 1.038730 8.195221 109.301483 -41.408253 -13.576799 104.187431
[L_mid_hand02]
14 105.572853 -4.139662 -10.864139 -148.402466 33.171719 -41.059582 106.211075
15 105.572853 -4.139662 -10.864139 -147.153671 31.943630 -38.737034 106.211075
[L_mid_hand03]
14 104.641464 17.579376 -3.913581 -13.575851 13.082142 47.042408 106.179977
15 104.641464 17.579376 -3.913581 -14.087292 12.528420 44.741467 106.179977
[null_rope02_connect]
14 328.732849 0.000179 -0.000119 -98.635269 72.053680 37.476604 328.732849
15 328.732849 0.000179 -0.000119 -96.902740 71.401978 36.282318 328.732849
[Rope2_Seg01]
14 0.000104 0.000171 0.000000 -37.773865 16.586414 -38.004921 0.000200
15 0.000106 0.000173 0.000000 17.822531 8.903574 -41.396305 0.000203
[Rope2_Seg02]
14 139.999741 -0.000060 -0.000119 -63.136856 4.102992 6.962261 139.999756
15 139.999741 -0.000060 -0.000119 -71.137299 9.627323 1.033710 139.999756
[Rope2_Seg03]
14 140.000107 0.000030 0.000000 -18.872169 -5.981405 9.503612 140.000107
15 140.000107 0.000030 0.000000 -58.587261 2.945796 12.582936 140.000107
[Rope2_Seg04]
14 139.999802 0.000000 -0.000060 -9.301516 -5.626851 7.553607 139.999802
15 139.999802 0.000000 -0.000060 -14.241272 -5.999200 9.424194 139.999802
[Rope2_Seg05]
14 139.999985 -0.000060 0.000119 -1.382639 -18.798306 8.710868 139.999985
15 139.999985 -0.000060 0.000119 -0.811121 -14.675798 6.692133 139.999985
[Rope2_Seg06]
14 139.999893 -0.000030 -0.000119 -9.208544 -50.399208 22.517620 139.999893
15 139.999893 -0.000030 -0.000119 -5.506993 -50.237610 18.463516 139.999893
[Rope2_Seg07]
14 139.999893 0.000060 -0.000060 -2.282142 -20.812412 7.950182 139.999893
15 139.999893 0.000060 -0.000060 -3.947928 -28.953238 10.758742 139.999893
[Rope2_Seg09]
14 121.338966 0.000089 -0.000060 33.793236 -1.359788 -0.847141 121.338966
15 121.338966 0.000089 -0.000060 33.793236 -1.359788 -0.847141 121.338966
[R_mid_hand01]
14 104.680779 11.144459 -10.335981 -29.481638 39.038586 50.818604 105.778534
15 104.680779 11.144459 -10.335981 -31.399162 37.614391 47.725441 105.778534
[R_mid_hand02]
14 104.070427 2.443552 8.231699 64.792801 -54.379654 21.475653 104.424065
15 104.070427 2.443552 8.231699 66.339699 -51.820030 19.540783 104.424065
[R_mid_hand03]
14 106.028137 -11.221827 -5.996406 -172.901611 14.168233 -60.324341 106.788818
15 106.028137 -11.221827 -5.996406 -172.206848 13.802570 -57.446243 106.788818
[spine02]
14 129.756927 0.001550 0.000119 -1.023900 -3.926965 6.770994 129.756927
15 129.756927 0.001550 0.000119 -1.023900 -3.926965 6.770994 129.756927
[spine03]
14 78.613800 0.087299 -4.898849 1.040681 4.146420 4.212375 78.766342
15 78.613800 0.087300 -4.898847 1.040681 4.146420 4.212375 78.766342
[pelvis]
14 169.435242 0.051022 0.000000 0.019518 -0.190233 -10.721436 169.435257
15 169.435242 0.051022 0.000000 0.019518 -0.190233 -10.721436 169.435257
[null_rope03_connect]
14 -1.257226 -2.466202 137.391083 -145.736984 -81.389420 -118.623367 137.418976
15 -1.257226 -2.466202 137.391083 -146.774948 -80.442062 -116.850494 137.418976
[null_rope04_connect]
14 -1.259640 -2.480268 -137.844437 -145.736984 -81.389420 -118.623367 137.872513
15 -1.259640 -2.480268 -137.844437 -146.774948 -80.442062 -116.850494 137.872513
[Rope3_Seg01]
14 -0.000017 -0.000048 -0.000153 -152.272003 -42.264591 -51.192230 0.000161
15 -0.000017 -0.000046 -0.000153 -155.440094 -44.406742 -48.647003 0.000160
[Rope3_Seg02]
14 139.999924 -0.000119 0.000060 -5.761968 -2.621753 -16.983948 139.999924
15 139.999924 -0.000119 0.000060 -1.771365 -5.634918 -13.771630 139.999924
[Rope3_Seg03]
14 139.999924 -0.000119 0.000119 -5.492773 -0.687192 -9.060857 139.999924
15 139.999924 -0.000119 0.000119 1.703658 -4.352762 -4.509128 139.999924
[Rope3_Seg04]
14 139.999924 0.000119 0.000000 -9.857752 0.473072 -9.645947 139.999924
15 139.999924 0.000119 0.000000 -2.449306 -2.869749 -7.235803 139.999924
[Rope3_Seg05]
14 139.999924 -0.000238 0.000060 -76.092476 8.026803 -33.596718 139.999924
15 139.999924 -0.000238 0.000060 -91.144333 -1.617728 -35.781082 139.999924
[Rope3_Seg06]
14 139.999893 -0.000119 -0.000060 -28.834246 29.320999 -1.111855 139.999893
15 139.999893 -0.000119 -0.000060 -34.847118 30.388052 -0.349087 139.999893
[Rope3_Seg07]
14 139.999771 0.000060 -0.000119 -3.153952 10.144068 5.102900 139.999771
15 139.999771 0.000060 -0.000119 -2.676274 9.183877 6.062992 139.999771
[Rope3_Seg08]
14 139.999985 -0.000060 0.000000 -0.702575 4.719585 2.735059 139.999985
15 139.999985 -0.000060 0.000000 -0.536539 4.232561 3.119964 139.999985
[Rope3_Seg09]
14 90.185997 -0.000179 -0.000060 89.793228 -1.359877 -0.847183 90.185997
15 90.185997 -0.000179 -0.000060 89.793228 -1.359877 -0.847183 90.185997
[R_rear_hand01]
14 103.366196 -6.073594 -10.757982 -169.405167 22.402502 -53.260670 104.101845
15 103.366196 -6.073594 -10.757982 -168.130341 21.777140 -49.871906 104.101845
[R_rear_hand02]
14 100.509819 12.039542 -7.992327 -25.038759 30.595238 50.476681 101.543350
15 100.509819 12.039542 -7.992327 -26.694445 29.195726 47.151855 101.543350
[R_rear_hand03]
14 101.539970 5.215704 5.435467 80.458862 -53.275688 11.535583 101.819031
15 101.539970 5.215704 5.435467 81.113556 -50.109848 10.702383 101.819031
[Rope4_Seg01]
14 0.000000 0.000019 0.000000 50.279350 -23.512434 -102.491501 0.000019
15 0.000000 0.000020 0.000000 48.489559 -20.834829 -97.937553 0.000020
[Rope4_Seg02]
14 139.999985 0.000060 0.000119 6.456176 -39.131474 18.079571 139.999985
15 139.999985 0.000060 0.000119 3.747356 -39.733055 16.768288 139.999985
[Rope4_Seg03]
14 139.999924 0.000000 -0.000238 16.625088 -19.307091 18.886051 139.999924
15 139.999924 0.000000 -0.000238 16.143099 -22.264441 18.791544 139.999924
[Rope4_Seg04]
14 139.999985 0.000000 0.000119 14.656391 -12.288402 13.948455 139.999985
15 139.999985 0.000000 0.000119 11.861119 -10.474022 10.674637 139.999985
[Rope4_Seg05]
14 139.999802 -0.000060 -0.000119 29.182861 -23.198503 42.349277 139.999802
15 139.999802 -0.000060 -0.000119 31.971252 -26.526913 34.823677 139.999802
[Rope4_Seg06]
14 139.999924 0.000000 0.000060 11.127273 2.610609 27.961641 139.999924
15 139.999924 0.000000 0.000060 18.512388 -0.947174 37.768211 139.999924
[Rope4_Seg07]
14 139.999802 0.000000 0.000000 1.613500 2.306158 7.415483 139.999802
15 139.999802 0.000000 0.000000 2.165209 2.881949 8.485460 139.999802
[Rope4_Seg08]
14 139.999924 0.000000 0.000119 -0.980954 1.194684 3.523534 139.999924
15 139.999924 0.000000 0.000119 -0.835480 1.454866 3.834986 139.999924
[Rope4_Seg09]
14 90.185791 0.000060 0.000060 -135.617828 2.228885 0.850567 90.185791
15 90.185791 0.000060 0.000060 -135.617828 2.228885 0.850567 90.185791
[L_rear_hand01]
14 101.696655 -8.392275 -7.654577 -31.553307 -23.761133 143.711090 102.329041
15 101.696655 -8.392275 -7.654577 -31.194277 -24.256094 142.819397 102.329041
[L_rear_hand02]
14 102.726799 -1.568258 5.773216 82.664520 39.085831 171.495636 102.900848
15 102.726799 -1.568258 5.773216 82.562164 40.032185 171.334641 102.900848
[L_rear_hand03]
14 104.552910 9.721220 -10.420293 -164.089569 -19.094522 -141.662735 105.519653
15 104.552910 9.721220 -10.420293 -164.408707 -19.357925 -140.691956 105.519653
